<svg xmlns="http://www.w3.org/2000/svg" width="18.517" height="18.52" viewBox="0 0 18.517 18.52"><defs><style>.a{fill:#fff;}</style></defs><g transform="translate(0 0)"><path class="a" d="M3653.436,1992.982a1.243,1.243,0,0,1,.448-.449q2.4-1.7,4.8-3.408c.119-.085.182-.092.293.02q2.376,2.39,4.765,4.767c.107.106.127.175.039.31q-1.638,2.5-3.26,5a.873.873,0,0,1-.461.413h-.253a1.576,1.576,0,0,1-.4-.324c-.3-.3-.59-.6-.9-.893a.2.2,0,0,1-.031-.309c.68-1.007,1.351-2.021,2.027-3.031a.589.589,0,0,0,.12-.491.514.514,0,0,0-.432-.41.538.538,0,0,0-.568.264q-.959,1.444-1.923,2.884a.351.351,0,0,1-.138.158c-.037-.042-.074-.09-.116-.132q-1.815-1.816-3.631-3.631a1.924,1.924,0,0,1-.375-.452Z" transform="translate(-3653.436 -1981.118)"/><path class="a" d="M3788.944,1836.8c-.158-.163-.3-.317-.451-.466q-2.109-2.11-4.222-4.215c-.13-.13-.091-.171.032-.254a3.434,3.434,0,0,1,3.886.038c.126.089.189.089.3-.023q3.446-3.457,6.9-6.907a.574.574,0,0,1,.6-.2.535.535,0,0,1,.284.852,1.743,1.743,0,0,1-.161.171q-3.439,3.439-6.879,6.876a.206.206,0,0,0-.045.308A3.426,3.426,0,0,1,3788.944,1836.8Z" transform="translate(-3777.869 -1824.752)"/></g></svg>