<svg xmlns="http://www.w3.org/2000/svg" width="9" height="12" viewBox="0 0 9 12">
  <g id="drop" transform="translate(0 0.143)">
    <path id="Path_15" data-name="Path 15" d="M55.381,5h7.875a.544.544,0,0,0,.4-.165.54.54,0,0,0,0-.781L59.713.165a.557.557,0,0,0-.791,0L54.985,4.054a.54.54,0,0,0,0,.781A.544.544,0,0,0,55.381,5Z" transform="translate(-54.818 -0.143)" fill="#565bbb"/>
    <path id="Path_16" data-name="Path 16" d="M63.255,237.549H55.381a.544.544,0,0,0-.4.165.54.54,0,0,0,0,.781l3.937,3.889a.557.557,0,0,0,.791,0l3.937-3.889a.54.54,0,0,0,0-.781A.544.544,0,0,0,63.255,237.549Z" transform="translate(-54.818 -230.692)" fill="#565bbb"/>
  </g>
</svg>
