<svg xmlns="http://www.w3.org/2000/svg" width="18.17" height="30.001" viewBox="0 0 18.17 30.001"><g transform="translate(-1082 -750)"><path d="M-400.044,237.063a.94.94,0,0,1,.63,1.02q-.01,13.989-.006,27.977a1.853,1.853,0,0,1-.042.435.781.781,0,0,1-.791.568.774.774,0,0,1-.733-.673,2.916,2.916,0,0,1-.013-.351q0-13.974-.007-27.948a.948.948,0,0,1,.61-1.029Z" transform="translate(1491.006 512.937)"/><path d="M-341.942,312c2.929,0,5.859,0,8.789-.006.248,0,.3.068.3.307q-.016,2.475,0,4.951c0,.229-.056.292-.289.292q-8.788-.01-17.577,0c-.248,0-.3-.07-.3-.309q.016-2.475,0-4.951c0-.232.062-.29.291-.289Q-346.337,312.006-341.942,312Z" transform="translate(1433.022 445.101)"/><path d="M-344.687,425.971c-2.012,0-4.024,0-6.036.006-.246,0-.3-.067-.3-.307q.016-2.476,0-4.952c0-.234.063-.29.293-.29q6.036.01,12.071,0c.205,0,.284.03.282.264q-.017,2.5,0,5.01c0,.217-.049.275-.271.274C-340.663,425.967-342.675,425.971-344.687,425.971Z" transform="translate(1436.025 346.933)"/></g></svg>