<svg xmlns="http://www.w3.org/2000/svg" width="14.393" height="22.649" viewBox="0 0 14.393 22.649"><defs><style>.a{fill:#fff;}</style></defs><path class="a" d="M-600.726,226.724c-.019-.086-.1-.125-.151-.18q-4.009-4.021-8.023-8.037a.465.465,0,0,1-.149-.366q.011-1.227,0-2.455c0-.158.046-.194.2-.193,1.6.005,3.193-.01,4.79.007A4.3,4.3,0,0,0-600,212.747c.01-.026.014-.054.026-.1h-.252q-4.293,0-8.586.005c-.2,0-.244-.049-.241-.243.012-.8.01-1.607,0-2.41,0-.174.045-.217.218-.217q4.315.008,8.63,0h.24a4.215,4.215,0,0,0-1.307-1.87,4.3,4.3,0,0,0-2.853-.986c-1.56.008-3.119,0-4.679.008-.21,0-.251-.063-.248-.258.011-.789.005-1.578,0-2.366a.432.432,0,0,0-.022-.238h14.393a.427.427,0,0,0-.023.238c0,.789-.007,1.577,0,2.366,0,.192-.034.262-.247.259-1.022-.013-2.045-.006-3.067-.006h-.268c.19.3.37.552.521.827a6.719,6.719,0,0,1,.7,1.824c.032.149.086.211.255.208.64-.013,1.28,0,1.919-.009.143,0,.187.034.186.181-.007.833-.008,1.666,0,2.5,0,.165-.059.19-.2.188-.64-.007-1.28,0-1.919-.008-.15,0-.2.05-.232.183a7.053,7.053,0,0,1-4.674,5.158,7.571,7.571,0,0,1-2.8.376c-.143,0-.287,0-.431,0l-.046.071a1.253,1.253,0,0,1,.195.133q2.99,2.991,5.98,5.983c.13.13.13.19,0,.319-.624.613-1.236,1.239-1.851,1.861Z" transform="translate(609.07 -204.075)"/></svg>