<svg xmlns="http://www.w3.org/2000/svg" width="31.422" height="20.948" viewBox="0 0 31.422 20.948"><defs><style>.a{fill:#fff;}</style></defs><path class="a" d="M31.233,14.178A17.5,17.5,0,0,0,15.711,4.5,17.5,17.5,0,0,0,.19,14.178a1.765,1.765,0,0,0,0,1.592,17.5,17.5,0,0,0,15.521,9.678A17.5,17.5,0,0,0,31.233,15.77,1.765,1.765,0,0,0,31.233,14.178ZM15.711,22.83a7.856,7.856,0,1,1,7.856-7.856A7.856,7.856,0,0,1,15.711,22.83Zm0-13.093a5.2,5.2,0,0,0-1.381.207,2.61,2.61,0,0,1-3.65,3.65,5.225,5.225,0,1,0,5.03-3.856Z" transform="translate(0 -4.5)"/></svg>