<svg xmlns="http://www.w3.org/2000/svg" width="30.002" height="22.902" viewBox="0 0 30.002 22.902"><g transform="translate(30.002) rotate(90)"><path d="M.63,30A.941.941,0,0,1,0,28.982Q.01,14.993.006,1A1.852,1.852,0,0,1,.048.569.781.781,0,0,1,1.573.674a2.916,2.916,0,0,1,.013.351q0,13.974.007,27.948A.948.948,0,0,1,.982,30Z" transform="translate(21.31 0)"/><path d="M9.09,5.544c-2.93,0-5.859,0-8.789.006-.248,0-.3-.068-.3-.307Q.016,2.767,0,.292C0,.064.056,0,.289,0q8.789.01,17.577,0c.248,0,.3.07.3.309q-.016,2.475,0,4.951c0,.232-.062.29-.291.289Q13.484,5.537,9.09,5.544Z" transform="translate(0 17.358)"/><path d="M6.308.006c2.012,0,4.024,0,6.036-.006.246,0,.3.067.3.307q-.016,2.476,0,4.952c0,.234-.063.29-.293.29q-6.036-.01-12.072,0C.077,5.549,0,5.518,0,5.284q.017-2.5,0-5.01C0,.056.05,0,.272,0,2.284.01,4.3.006,6.308.006Z" transform="translate(5.524 7.093)"/></g></svg>