<svg xmlns="http://www.w3.org/2000/svg" width="30.001" height="18.17" viewBox="0 0 30.001 18.17"><g transform="translate(30.001) rotate(90)"><path d="M.962,30a.94.94,0,0,0,.63-1.02Q1.583,14.993,1.586,1A1.853,1.853,0,0,0,1.544.569.781.781,0,0,0,.02.674a2.916,2.916,0,0,0-.013.351Q.006,15,0,28.973A.948.948,0,0,0,.61,30Z" transform="translate(8 0)"/><path d="M9.08,5.544c2.929,0,5.859,0,8.789.006.248,0,.3-.068.3-.307q-.016-2.475,0-4.951c0-.229-.056-.292-.289-.292Q9.092.011.3,0C.055,0,0,.07,0,.309Q.016,2.785,0,5.26c0,.232.062.29.291.289Q4.686,5.537,9.08,5.544Z" transform="translate(0 17.358)"/><path d="M6.339.006C4.327.006,2.315.01.3,0,.057,0,0,.067,0,.307Q.016,2.783,0,5.259c0,.234.063.29.293.29q6.036-.01,12.071,0c.205,0,.284-.03.282-.264q-.017-2.5,0-5.01C12.647.056,12.6,0,12.374,0,10.363.01,8.351.006,6.339.006Z" transform="translate(3 7.092)"/></g></svg>