<svg xmlns="http://www.w3.org/2000/svg" width="30.002" height="22.902" viewBox="0 0 30.002 22.902"><g transform="translate(0 22.902) rotate(-90)"><path d="M.63,0A.941.941,0,0,0,0,1.02Q.01,15.009.006,29a1.852,1.852,0,0,0,.042.435.781.781,0,0,0,1.525-.105,2.916,2.916,0,0,0,.013-.351q0-13.974.007-27.948A.948.948,0,0,0,.982,0Z" transform="translate(21.31 0)"/><path d="M9.09.006C6.161.006,3.231.009.3,0,.054,0,0,.068,0,.307Q.016,2.782,0,5.258c0,.229.056.292.289.292q8.789-.01,17.577,0c.248,0,.3-.07.3-.309q-.016-2.475,0-4.951c0-.232-.062-.29-.291-.289Q13.484.013,9.09.006Z" transform="translate(0 7.094)"/><path d="M6.308,5.543c2.012,0,4.024,0,6.036.006.246,0,.3-.067.3-.307q-.016-2.476,0-4.952c0-.234-.063-.29-.293-.29Q6.318.01.282,0C.077,0,0,.031,0,.265q.017,2.5,0,5.01c0,.217.049.275.271.274C2.284,5.539,4.3,5.543,6.308,5.543Z" transform="translate(5.524 17.36)"/></g></svg>