<svg xmlns="http://www.w3.org/2000/svg" xmlns:xlink="http://www.w3.org/1999/xlink" width="16.15" height="24" viewBox="0 0 16.15 24">
  <defs>
    <clipPath id="clip-path">
      <path id="Path_348" data-name="Path 348" d="M15.826,10.222v12.4h10.31a5.84,5.84,0,0,0,5.839-5.839,6.561,6.561,0,0,0-6.56-6.561Z" transform="translate(-15.826 -10.222)" fill="#1e1e1e"/>
    </clipPath>
  </defs>
  <g id="boothat_logo_icon" transform="translate(-1235.841 1066)">
    <path id="Path_339" data-name="Path 339" d="M25.415,30.1a5.656,5.656,0,0,1,5.65,5.651,4.936,4.936,0,0,1-4.93,4.93h-9.4V30.1Zm0-.91H15.826v12.4H26.135a5.84,5.84,0,0,0,5.84-5.84,6.561,6.561,0,0,0-6.56-6.561" transform="translate(1220.015 -1083.589)" fill="#1e1e1e"/>
    <path id="Path_340" data-name="Path 340" d="M30.1,37.634A2.736,2.736,0,1,1,27.361,34.9,2.735,2.735,0,0,1,30.1,37.634" transform="translate(1216.556 -1085.834)" fill="#1e1e1e"/>
    <g id="Group_137" data-name="Group 137" transform="translate(1235.841 -1066)">
      <g id="Group_136" data-name="Group 136" clip-path="url(#clip-path)">
        <path id="Path_341" data-name="Path 341" d="M33.375,26.978a.376.376,0,0,1-.265-.641l4.641-4.642a.376.376,0,0,1,.531.532L33.64,26.868a.375.375,0,0,1-.265.11" transform="translate(-22.578 -14.69)" fill="#1e1e1e"/>
        <path id="Path_342" data-name="Path 342" d="M27.31,24.3a.376.376,0,0,1-.266-.641l8.321-8.321a.376.376,0,1,1,.531.532l-8.321,8.321a.376.376,0,0,1-.266.11" transform="translate(-20.194 -12.191)" fill="#1e1e1e"/>
        <path id="Path_343" data-name="Path 343" d="M21.427,23a.376.376,0,0,1-.266-.641L31.882,11.634a.376.376,0,0,1,.531.532L21.693,22.886a.377.377,0,0,1-.266.11" transform="translate(-17.881 -10.734)" fill="#1e1e1e"/>
        <path id="Path_344" data-name="Path 344" d="M15.794,21.889a.376.376,0,0,1-.266-.641l12-12a.376.376,0,0,1,.531.532l-12,12a.376.376,0,0,1-.266.11" transform="translate(-15.666 -9.795)" fill="#1e1e1e"/>
        <path id="Path_345" data-name="Path 345" d="M12.681,18.776a.376.376,0,0,1-.266-.641l12-12a.376.376,0,0,1,.531.532l-12,12a.376.376,0,0,1-.266.11" transform="translate(-14.442 -8.571)" fill="#1e1e1e"/>
        <path id="Path_346" data-name="Path 346" d="M9.676,15.772a.376.376,0,0,1-.266-.641l12-12a.376.376,0,0,1,.532.532l-12,12a.377.377,0,0,1-.266.11" transform="translate(-13.26 -7.39)" fill="#1e1e1e"/>
        <path id="Path_347" data-name="Path 347" d="M6.659,12.754a.376.376,0,0,1-.266-.641l12-12a.376.376,0,0,1,.532.532l-12,12a.376.376,0,0,1-.266.11" transform="translate(-12.074 -6.203)" fill="#1e1e1e"/>
      </g>
    </g>
  </g>
</svg>
