<svg xmlns="http://www.w3.org/2000/svg" width="40" height="37.469" viewBox="0 0 40 37.469"><defs><style>.a{fill:#436129;}</style></defs><path class="a" d="M-698.163,3864.939a12.469,12.469,0,0,0,.3-1.657,8.234,8.234,0,0,1,2.393-4.583,5.086,5.086,0,0,1,2.416-1.28,2.445,2.445,0,0,1,2.528.928c.155.189.28.4.438.634a4.768,4.768,0,0,1,1.355-1.822c.544-.411.538-.412.365-1.083a10.565,10.565,0,0,1-.187-5.434,5.885,5.885,0,0,1,1.584-2.731,2.734,2.734,0,0,1,4.325.082c.151.159.293.442.449.449s.326-.26.493-.4a3.372,3.372,0,0,1,5.375.734,4.708,4.708,0,0,1,.614,2.7,6.492,6.492,0,0,1-.381,1.866,4,4,0,0,0-.108,2.132,20.116,20.116,0,0,1,.031,5.758,35.267,35.267,0,0,1-.775,4.215c-.024.1-.124.252.106.221a2.812,2.812,0,0,1,1.869.479c.066-1.264.107-2.483.243-3.7a16.313,16.313,0,0,1,1.433-5.791,3.817,3.817,0,0,1,2.459-2.18,3.7,3.7,0,0,1,3.988,1.565,7.67,7.67,0,0,1,1.117,3.373c.022,0,.056.017.066.007a2.646,2.646,0,0,1,3.2-.495,6.516,6.516,0,0,1,3.513,3.924,13.238,13.238,0,0,1,.784,4.511,21.257,21.257,0,0,1-.613,5.686,4.748,4.748,0,0,1-1.072,2.01,3.041,3.041,0,0,1-4.266.509c-.257-.18-.32-.155-.455.119a14.648,14.648,0,0,1-11.581,8.524,14.9,14.9,0,0,1-16-9.485c-.1-.266-.169-.323-.446-.171a3.084,3.084,0,0,1-4.119-1.044,6.685,6.685,0,0,1-1.125-3.118c-.1-.642-.161-1.29-.239-1.936-.008-.062,0-.133-.08-.154Zm19.629,16.817a3.354,3.354,0,0,0,1.938-1.592,20.592,20.592,0,0,0,2.462-5.526,9.783,9.783,0,0,0,.342-4.4,4.766,4.766,0,0,0-1.774-3.063,1.379,1.379,0,0,0-1.888.015,4.347,4.347,0,0,0-.771.822.762.762,0,0,0-.151.651,34.643,34.643,0,0,1,.447,4.3,33.943,33.943,0,0,1-.663,8.728c-.024.033-.038.069.005.094C-678.58,3881.8-678.552,3881.77-678.534,3881.756Zm17.337-7.061a3.672,3.672,0,0,0,1.321-2.1,19.9,19.9,0,0,0,.522-3.978,14.388,14.388,0,0,0-.521-4.865,5.727,5.727,0,0,0-2.554-3.5c-1.528-.885-2.484-.5-3.013,1.189a.48.48,0,0,0,.184.621,8.126,8.126,0,0,1,1.826,1.964.583.583,0,0,1-.116.833.6.6,0,0,1-.852-.173c-.048-.062-.086-.131-.134-.192a6.8,6.8,0,0,0-3.529-2.633,2.1,2.1,0,0,0-2.617,1.125,2.966,2.966,0,0,0-.248,1.406,5.033,5.033,0,0,0,1.193,2.745c1.7,2.369,3.644,4.548,5.518,6.779a3.366,3.366,0,0,0,1.405,1.021c.294.109.421.089.433-.287a21.639,21.639,0,0,0-.9-7.668.58.58,0,0,1,.312-.812c.357-.149.664.03.815.485a19.365,19.365,0,0,1,.949,5.67C-661.181,3873.086-661.2,3873.85-661.2,3874.695Zm-18.162,8.474c.467,0,.934,0,1.4,0a11.262,11.262,0,0,0,2.019-.177,13.768,13.768,0,0,0,10.515-8.262.421.421,0,0,0-.079-.518q-1.713-2.027-3.405-4.072a.487.487,0,0,0-.428-.2c-.976.008-1.953.023-2.928-.007-.369-.011-.39.122-.339.42a8.361,8.361,0,0,1,.023,2.412,19.728,19.728,0,0,1-2.959,7.927A4.7,4.7,0,0,1-679.358,3883.168Zm-.745-.147c-.042-.09-.047-.125-.063-.132a4.119,4.119,0,0,1-2.2-2.551c-.58-1.527-1.155-3.057-1.7-4.6a25.661,25.661,0,0,1-1.575-5.607c-.022-.2-.118-.189-.256-.188-.69,0-1.379.01-2.069,0a.592.592,0,0,0-.525.242q-1.3,1.579-2.64,3.133a.475.475,0,0,0-.1.551,13.77,13.77,0,0,0,8.264,8.431A11.414,11.414,0,0,0-680.1,3883.021Zm-13.8-10.433c0,.355.007.642,0,.928-.007.221.066.26.277.2a3.523,3.523,0,0,0,1.648-1.2c.818-.962,1.637-1.923,2.443-2.9a49.214,49.214,0,0,0,3.449-4.483,4.034,4.034,0,0,0,.694-2.08,2.336,2.336,0,0,0-1.6-2.483,3.261,3.261,0,0,0-3.2,1.292c-.234.375-.461.754-.673,1.141A22.3,22.3,0,0,0-693.9,3872.588Zm14.074,9.149a24.877,24.877,0,0,0,.644-4.1,38.367,38.367,0,0,0-.317-8.6,1.107,1.107,0,0,0-.163-.59,4.56,4.56,0,0,0-1.335-1.181,2.1,2.1,0,0,0-2.923.728,3.539,3.539,0,0,0-.451,2.736,35.035,35.035,0,0,0,1.445,4.682q.876,2.413,1.8,4.81A2.64,2.64,0,0,0-679.828,3881.738Zm-15.268-8.274a19.339,19.339,0,0,1,.25-3.029,25.312,25.312,0,0,1,3.7-9.222,1.391,1.391,0,0,0,.093-1.5,1.6,1.6,0,0,0-2.46-.912c-.07.033-.14.069-.208.105a5.667,5.667,0,0,0-2.786,3.817,17.94,17.94,0,0,0,.13,8.834A3.316,3.316,0,0,0-695.1,3873.463Zm28.256-12.42a8.19,8.19,0,0,0-.08-1.636,6.2,6.2,0,0,0-.941-2.776,2.442,2.442,0,0,0-4.037-.034,6.887,6.887,0,0,0-.928,2,32.983,32.983,0,0,0-.973,8.576.512.512,0,0,0,.127.317,4.887,4.887,0,0,1,.58,1.055.3.3,0,0,0,.344.225c.572-.012,1.145,0,1.718-.006a5.107,5.107,0,0,0,1-.032c-.35-.494-.683-.958-1.009-1.427a5.554,5.554,0,0,1-1.065-2.923,3.482,3.482,0,0,1,2.569-3.712A4.33,4.33,0,0,1-666.839,3861.043Zm-15.784-4.906c0,.091,0,.182,0,.273a19.721,19.721,0,0,0,.913,6.263c.122.36.245.335.5.15a3.229,3.229,0,0,0,1.092-1.535c.834-2.237,1.7-4.461,2.44-6.733a.559.559,0,0,0,.056-.339,7.661,7.661,0,0,0-1.157-2.662,3.629,3.629,0,0,0-2.993-1.489c-.238,0-.336.073-.373.32A37.646,37.646,0,0,0-682.623,3856.137Zm-1.172,2a1.663,1.663,0,0,0,.025-.194,36.167,36.167,0,0,1,.6-8.462.381.381,0,0,0-.025-.336c-.893-1.172-1.813-1.476-2.865-.482a4.832,4.832,0,0,0-1.392,2.433,10.032,10.032,0,0,0,.326,5.076c.069.254.173.35.45.339a3.579,3.579,0,0,1,.807.115A3.465,3.465,0,0,1-683.8,3858.142Zm6.527-1.136c-.037.095-.076.189-.112.285-.525,1.422-1.039,2.848-1.579,4.264a4.031,4.031,0,0,1-2.222,2.567c-.151.06-.149.134-.115.264.128.489.248.98.365,1.472a.293.293,0,0,0,.18.229,5.183,5.183,0,0,1,1.63,1.18c.227-.417.667-.633.794-1.133a36.256,36.256,0,0,0,1.076-5.812A13.43,13.43,0,0,0-677.268,3857.006Zm-10.018,11.764c.516,0,.983-.015,1.448.006.249.011.347-.062.425-.312a3.671,3.671,0,0,1,2.366-2.554c.284-.1.737.042.825-.26.078-.268-.127-.619-.207-.934-.022-.088-.043-.177-.066-.265s-.062-.168-.173-.183a4.351,4.351,0,0,1-1.579-.627C-684.647,3865.712-686.119,3867.111-687.286,3868.77Zm4.373-5.752a21.462,21.462,0,0,0-.986-2.642,7.219,7.219,0,0,0-1.328-2.1,1.886,1.886,0,0,0-1.356-.563c.03.091.044.154.071.213a7.178,7.178,0,0,0,1.512,2.64,1.793,1.793,0,0,1,.512.908C-684.29,3862.3-683.645,3862.634-682.913,3863.018Zm1.994-14.058a5.168,5.168,0,0,1,3.893,3.307,3.782,3.782,0,0,0-.3-2.88A2.188,2.188,0,0,0-680.919,3848.96Zm-8.134,10.64c.3-.075.535-.123.763-.2.343-.108.9.116,1-.208.088-.283-.249-.7-.4-1.054-.005-.012-.007-.025-.011-.037-.05-.159-.13-.158-.253-.064A3.478,3.478,0,0,0-689.053,3859.6Z" transform="translate(698.163 -3846.889)"/></svg>