<svg xmlns="http://www.w3.org/2000/svg" width="11.773" height="15" viewBox="0 0 11.773 15"><defs><style>.a{fill:#d10101;}</style></defs><g transform="translate(-1361.347 -862.029)"><path class="a" d="M1389.4,1003.014c-.054-.055-.132-.051-.2-.075a1.335,1.335,0,0,1-.886-1.177c-.091-1.318-.189-2.636-.283-3.954q-.124-1.744-.245-3.487c-.025-.35-.05-.7-.08-1.05-.008-.088,0-.126.107-.126q4.748,0,9.5,0c.091,0,.113.02.106.113q-.173,2.341-.34,4.683-.137,1.919-.27,3.838a1.316,1.316,0,0,1-1.071,1.206c-.02,0-.037.006-.042.03Zm2.079-5.141h0q-.016-.314-.032-.628c-.029-.584-.056-1.169-.089-1.753a.438.438,0,0,0-.876.019c0,.083,0,.166.009.248q.069,1.381.139,2.761c.028.565.056,1.13.087,1.694a.439.439,0,1,0,.877-.034c0-.078-.006-.156-.01-.234Q1391.533,998.91,1391.48,997.873Zm3.046-.014h0c.039-.76.079-1.519.115-2.279a.443.443,0,0,0-.417-.5.449.449,0,0,0-.461.475c-.033.677-.069,1.354-.1,2.03-.043.862-.088,1.724-.127,2.586a.439.439,0,1,0,.876.04Q1394.468,999.034,1394.526,997.858Z" transform="translate(-25.329 -125.985)"/><path class="a" d="M1367.23,866.283h-5.356c-.447,0-.648-.3-.453-.7a2.743,2.743,0,0,1,2.48-1.642c.161-.008.322-.006.483,0,.08,0,.113-.015.135-.1a2.323,2.323,0,0,1,2.3-1.8,8.638,8.638,0,0,1,1.169.02,2.316,2.316,0,0,1,1.961,1.76c.026.106.067.126.164.123a3.459,3.459,0,0,1,1.34.161,2.764,2.764,0,0,1,1.62,1.529.437.437,0,0,1-.426.649Zm-1.819-2.342c1.193,0,2.377,0,3.561,0,.117,0,.085-.053.058-.115a1.373,1.373,0,0,0-1.08-.883,5.379,5.379,0,0,0-1.356-.012A1.371,1.371,0,0,0,1365.411,863.941Z"/></g></svg>