<svg xmlns="http://www.w3.org/2000/svg" width="14.996" height="15" viewBox="0 0 14.996 15"><defs><style>.a{fill:#6d9e42;}</style></defs><g transform="translate(779.764 -207.604)"><path class="a" d="M-779.764,280.239v-9.9c.052-.023.035-.077.045-.115a1.608,1.608,0,0,1,1.6-1.232q3.858,0,7.715,0c.033,0,.077-.025.107.034-.042.038-.087.075-.129.117q-1.91,1.909-3.821,3.819a1.572,1.572,0,0,0-.395.639c-.186.573-.382,1.144-.573,1.716a1.567,1.567,0,0,0-.093.442,1.318,1.318,0,0,0,1.743,1.3c.593-.19,1.18-.4,1.772-.588a1.657,1.657,0,0,0,.674-.42q1.907-1.913,3.818-3.822a.8.8,0,0,0,.087-.129c.04.044.045.057.045.069,0,2.621,0,5.241,0,7.862a1.591,1.591,0,0,1-1.2,1.5c-.067.018-.145,0-.2.053h-9.84c-.035-.051-.095-.04-.142-.054a1.609,1.609,0,0,1-1.133-1.08C-779.717,280.381-779.709,280.3-779.764,280.239Z" transform="translate(0 -58.982)"/><path class="a" d="M-643.1,256.519a.433.433,0,0,1-.431-.539c.2-.644.422-1.284.636-1.925a.472.472,0,0,1,.126-.177q2.686-2.685,5.37-5.372c.073-.073.11-.072.181,0q.839.848,1.687,1.687c.075.074.067.111,0,.181q-2.683,2.677-5.362,5.359a.644.644,0,0,1-.257.161q-.886.294-1.772.589A.454.454,0,0,1-643.1,256.519Z" transform="translate(-130.888 -39.248)"/><path class="a" d="M-464.816,209.169a.718.718,0,0,1-.2.5c-.222.227-.449.448-.67.676-.055.057-.085.052-.138,0q-.861-.867-1.729-1.728c-.059-.059-.046-.088.005-.138.223-.218.44-.444.665-.66a.71.71,0,0,1,.993-.019c.306.286.6.589.89.89A.694.694,0,0,1-464.816,209.169Z" transform="translate(-299.952 0)"/></g></svg>