<svg xmlns="http://www.w3.org/2000/svg" width="33.175" height="40" viewBox="0 0 33.175 40"><defs><style>.a{fill:#436129;}</style></defs><g transform="translate(1689.718 -3348.603)"><path class="a" d="M-1689.373,3388.6c-.489-.523-.469-.81.137-1.246a16.7,16.7,0,0,1,3.865-2,.551.551,0,0,1,.761.333.558.558,0,0,1-.347.757,19.509,19.509,0,0,0-2.108.964h27.874c-.194-.1-.306-.16-.421-.215a27.231,27.231,0,0,0-7.788-2.265,41.848,41.848,0,0,0-4.782-.4c-.372-.012-.548.046-.489.465a4.5,4.5,0,0,1,0,.858.552.552,0,0,1-.593.583.535.535,0,0,1-.573-.593,9.221,9.221,0,0,1,0-.976c.022-.283-.078-.342-.347-.334a37.659,37.659,0,0,0-7.691.961c-.48.114-.772-.029-.854-.41-.078-.365.115-.6.575-.718a36.276,36.276,0,0,1,7.882-.991c.3-.007.39-.068.347-.384a11.9,11.9,0,0,0-1.265-4.07.332.332,0,0,0-.449-.2,9.039,9.039,0,0,1-10.983-7.671,8.049,8.049,0,0,1-.049-1.676.776.776,0,0,1,.626-.777,8.616,8.616,0,0,1,6.8.662,8.762,8.762,0,0,1,4.847,8.476c-.009.279.013.332.5,1.124.115-.073.052-.186.052-.273,0-3.021,0-6.042.01-9.063,0-.3-.07-.384-.38-.385a11.353,11.353,0,0,1-11-9c-.1-.448.055-.739.426-.822s.611.125.727.572a10.164,10.164,0,0,0,7.221,7.724,9.324,9.324,0,0,0,2.432.365,16,16,0,0,0-.946-1.684,37.833,37.833,0,0,0-4.573-5.921c-.171-.183-.349-.358-.27-.645a.6.6,0,0,1,1.063-.218,36.451,36.451,0,0,1,2.879,3.392,33.733,33.733,0,0,1,2.587,3.942c.049.087.105.17.2.323a10.487,10.487,0,0,0-.228-5.063,10.327,10.327,0,0,0-9.7-7.251c-.4,0-.585.112-.639.51-.057.425-.155.842-.2,1.271-.048.5-.285.718-.674.671s-.533-.284-.492-.774a10.22,10.22,0,0,1,.456-2.249.687.687,0,0,1,.669-.542,10.929,10.929,0,0,1,8.179,2.706,11.241,11.241,0,0,1,3.877,6.908c.289-.868.526-1.634.8-2.385a1.093,1.093,0,0,0-.114-1.066,7.578,7.578,0,0,1,4.124-11.175c.721-.223.839-.183,1.265.438a7.6,7.6,0,0,1-3.652,11.373.57.57,0,0,0-.4.416c-.276.876-.572,1.746-.865,2.633.2.069.271-.133.375-.238a11.452,11.452,0,0,1,5.559-3.221,11.208,11.208,0,0,1,4.685-.131.79.79,0,0,1,.738.723,11.786,11.786,0,0,1,.173,1.747.558.558,0,0,1-.587.626.564.564,0,0,1-.584-.595c-.02-.285-.035-.571-.063-.856-.053-.551-.056-.553-.652-.607a9.939,9.939,0,0,0-7.664,2.418,9.992,9.992,0,0,0-3.582,8.059c0,.06.007.119.014.228.615-.732,1.184-1.435,1.779-2.114a25.437,25.437,0,0,1,5.858-5.117.606.606,0,0,1,.787-.019c.362.31.3.734-.172,1.017a20.694,20.694,0,0,0-3.478,2.7,37.562,37.562,0,0,0-4.18,4.741,8.422,8.422,0,0,0,2.38.03c.154-.015.17-.141.225-.236a7.5,7.5,0,0,1,6.537-3.99.528.528,0,0,0,.471-.266,10.446,10.446,0,0,0,1.343-2.884c.032-.113.054-.228.093-.338a.562.562,0,0,1,.7-.391.555.555,0,0,1,.415.72,10.906,10.906,0,0,1-1.187,2.911c-.064.11-.125.223-.2.356.395.128.771.247,1.145.371a.719.719,0,0,1,.526.766,7.69,7.69,0,0,1-6.24,7.444,7.325,7.325,0,0,1-3.727-.309.341.341,0,0,0-.452.136,12.051,12.051,0,0,0-2.548,5.739c-.046.281,0,.366.317.372a33.642,33.642,0,0,1,11.348,2.009,17.611,17.611,0,0,1,3.791,1.887,1.371,1.371,0,0,1,.411.409.63.63,0,0,1-.092.922Zm20.571-14.077c.03-.13.153-.168.241-.235a15.521,15.521,0,0,1,3.227-1.871c.436-.188.726-.109.885.239s.024.62-.4.826c-.513.25-1.033.488-1.53.767a12.265,12.265,0,0,0-2.539,1.858,5.762,5.762,0,0,0,2.776.187,6.494,6.494,0,0,0,5.331-5.576c.062-.4-.039-.542-.419-.636a6.434,6.434,0,0,0-7.551,4.062c-.04.115-.17.244-.023.379l-.029-.069-.031.024Zm-6.921,1.565a1.025,1.025,0,0,0-.008-.563,7.907,7.907,0,0,0-8.911-6.04c-1.07.177-.885.006-.838,1.044a4.406,4.406,0,0,0,.056.543,7.841,7.841,0,0,0,6.686,6.625,7.187,7.187,0,0,0,2.695-.1c-.076-.112-.121-.189-.176-.259a13.314,13.314,0,0,0-4.969-3.929c-.441-.2-.592-.5-.432-.85.152-.336.455-.42.891-.225A14.494,14.494,0,0,1-1675.723,3376.091Zm4.979-17.178c.031-.1.044-.14.059-.184.644-1.85,1.266-3.709,2-5.529a.725.725,0,0,1,.336-.457.584.584,0,0,1,.654.1.544.544,0,0,1,.142.67q-.778,2.1-1.538,4.2c-.166.458-.313.923-.491,1.453.175-.083.279-.126.376-.181a6.485,6.485,0,0,0,2.325-8.831c-.164-.277-.309-.287-.582-.182a6.493,6.493,0,0,0-3.995,6.675A6.108,6.108,0,0,0-1670.744,3358.912Zm-1.921,20.24a16.182,16.182,0,0,1,2.153-3.085.622.622,0,0,0,.211-.4,5.2,5.2,0,0,1,.2-1.186c.066-.222.021-.3-.226-.279a7.36,7.36,0,0,1-1.942-.086c-.4-.074-.412.063-.406.376.017.831.006,1.663.006,2.494Z" transform="translate(0 0)"/><path class="a" d="M-1489.929,3596.291l-.073-.053.037-.028.035.082Z" transform="translate(-178.869 -221.76)"/></g></svg>