<svg xmlns="http://www.w3.org/2000/svg" width="40.02" height="40" viewBox="0 0 40.02 40"><defs><style>.a{fill:#436129;}</style></defs><g transform="translate(555.141 -3916.812)"><path class="a" d="M-515.12,4118.043q-19.784,0-39.569.008c-.346,0-.434-.076-.446-.434a6.376,6.376,0,0,1,1.165-4.231,5.748,5.748,0,0,1,3.76-2.3,1.127,1.127,0,0,0,.664-.346,6.671,6.671,0,0,1,3.5-1.924c.261-.053.352-.145.348-.428-.019-1.365-.017-2.732,0-4.1,0-.286-.063-.384-.365-.371a6.48,6.48,0,0,1-3.31-.545,5.815,5.815,0,0,1-3.393-5.246c-.016-.337,0-.676-.006-1.014,0-.156.023-.237.208-.232a39.365,39.365,0,0,1,4.1.073,5.67,5.67,0,0,1,4.592,3.431c.128.273.18.317.434.114a5.608,5.608,0,0,1,3.49-1.261c1.119-.021,2.239-.007,3.359,0,.125,0,.289-.07.3.178a6.6,6.6,0,0,1-1.063,4.342,5.776,5.776,0,0,1-4.776,2.52c-.1,0-.208,0-.312,0-.918,0-.918,0-.918.9,0,.43,0,.859,0,1.288,0,.174.019.275.232.318a6.872,6.872,0,0,1,3.774,2.121.716.716,0,0,0,.462.17,5.749,5.749,0,0,1,4.716,4.228.464.464,0,0,0,.547.4q9.257-.013,18.515-.006Zm-37.441-2.358h16.009c.04-.081,0-.134-.028-.193a3.611,3.611,0,0,0-3.529-2.158.484.484,0,0,1-.476-.23,5.052,5.052,0,0,0-2-1.689,4.727,4.727,0,0,0-5.872,1.654.55.55,0,0,1-.535.265,3.722,3.722,0,0,0-2.5.832A3.077,3.077,0,0,0-552.562,4115.685Zm13.688-14.105a8.291,8.291,0,0,0-1.618.066,3.523,3.523,0,0,0-2.56,2.014c-.114.233-.052.294.189.282.35-.017.7,0,1.052-.027A3.464,3.464,0,0,0-538.874,4101.579Zm-11.342-2.349a3.387,3.387,0,0,0,.761,1.251,3.878,3.878,0,0,0,3.236,1.11c.287-.015.292-.088.185-.31a3.549,3.549,0,0,0-2.2-1.9A6.6,6.6,0,0,0-550.216,4099.23Z" transform="translate(0 -161.239)"/><path class="a" d="M-373.7,3921.574a7.381,7.381,0,0,1-2.135,2.707c-.151.154-.194.228-.014.412a3.182,3.182,0,0,1-.008,4.462q-3.766,3.794-7.561,7.559a3.144,3.144,0,0,1-4.655-.307,1.932,1.932,0,0,0-1.7-.853c-2.377-.1-4.752-.258-7.129-.38-.251-.013-.318-.077-.317-.329q.017-2.829,0-5.657c0-.278.088-.342.349-.353.974-.041,1.948-.107,2.921-.166.073,0,.159.023.235-.087-.586-.822-1.165-1.664-1.78-2.479-.209-.276-.178-.421.06-.652,1.053-1.025,2.08-2.077,3.128-3.106.181-.178.189-.273,0-.454-.683-.66-1.343-1.343-2.022-2.006-.153-.149-.176-.236-.007-.4q.639-.6,1.241-1.242c.167-.176.265-.2.45-.01.659.684,1.337,1.348,2.011,2.017.09.089.158.254.334.075q1.732-1.764,3.476-3.517h.078c.512.373,1.029.739,1.533,1.123a.767.767,0,0,0,.5.163c.935-.006,1.871,0,2.806,0,1.741,0,3.482-.008,5.223,0a2.9,2.9,0,0,1,2.891,2.158c.018.058,0,.134.088.148Zm-3.577,5.287a1.064,1.064,0,0,0-.535-.766q-4.235-3.026-8.466-6.057c-.209-.15-.319-.109-.48.058q-.883.91-1.8,1.793c-.183.176-.186.272,0,.453.829.809,1.638,1.638,2.465,2.449.172.168.21.267.011.45-.421.387-.829.792-1.214,1.214-.2.218-.3.167-.48-.017-.809-.828-1.637-1.639-2.45-2.463-.141-.143-.226-.2-.4-.022-.615.636-1.243,1.26-1.876,1.878-.141.138-.145.228-.03.388q3.079,4.293,6.149,8.592a.846.846,0,0,0,1.425.125q3.682-3.661,7.345-7.34A1,1,0,0,0-377.278,3926.86Zm-4.289-6.425-.038.073q1.752,1.251,3.5,2.5c.168.121.232-.013.317-.1.5-.494.992-.992,1.49-1.485.184-.183.336-.385.236-.653-.107-.286-.366-.342-.641-.342Zm-8.851,12.755c-.551-.771-1.052-1.464-1.543-2.165-.1-.137-.208-.121-.34-.113-.7.043-1.4.1-2.1.112-.355.006-.526.1-.47.483a4.657,4.657,0,0,1,.006.663c0,.774,0,.773.792.809.182.008.363.026.545.037Z" transform="translate(-141.419)"/><path class="a" d="M-442.525,4060.546c-.312,0-.625-.009-.936,0-.176.007-.219-.06-.21-.226a5.825,5.825,0,0,1,2.749-4.763c.155-.1.215-.052.292.084q.469.83.955,1.65c.084.141.07.205-.072.3a3.421,3.421,0,0,0-1.573,2.728c-.012.206-.1.227-.269.223C-441.9,4060.54-442.213,4060.546-442.525,4060.546Z" transform="translate(-99.827 -124.21)"/></g></svg>