<svg xmlns="http://www.w3.org/2000/svg" width="15" height="15" viewBox="0 0 15 15"><defs><style>.a{fill:#fff;}</style></defs><path class="a" d="M-678.858,198.01v1.2c-.04.011-.027.045-.031.071-.04.274-.068.551-.123.822a7.515,7.515,0,0,1-6.469,5.926.694.694,0,0,0-.319.051h-1.172c-.015-.047-.056-.028-.086-.031a8.089,8.089,0,0,1-.838-.129,7.348,7.348,0,0,1-4.421-2.8,7.253,7.253,0,0,1-1.375-6.053,7.111,7.111,0,0,1,2.772-4.4,7.165,7.165,0,0,1,7.171-1.075,7.267,7.267,0,0,1,4.813,5.936A2.112,2.112,0,0,0-678.858,198.01Zm-2.912,3.824a5.585,5.585,0,0,0-.97-7.529,5.572,5.572,0,0,0-6.852-.28Zm-1.356,1.35-7.826-7.813a5.6,5.6,0,0,0,.624,7.193A5.62,5.62,0,0,0-683.126,203.183Z" transform="translate(693.858 -191.08)"/></svg>