<svg xmlns="http://www.w3.org/2000/svg" xmlns:xlink="http://www.w3.org/1999/xlink" width="109" height="88.784" viewBox="0 0 109 88.784">
  <defs>
    <clipPath id="clip-path">
      <path id="Path_348" data-name="Path 348" d="M15.826,10.222V40.986H41.4A14.487,14.487,0,0,0,55.891,26.5,16.277,16.277,0,0,0,39.615,10.222Z" transform="translate(-15.826 -10.222)" fill="#fff"/>
    </clipPath>
  </defs>
  <g id="small_logo" transform="translate(-756 646)">
    <g id="Group_19040" data-name="Group 19040" transform="translate(756 -574.298)">
      <path id="Path_332" data-name="Path 332" d="M10.041,66.678a4.373,4.373,0,0,1,1.2,1.487,4.323,4.323,0,0,1-.2,4.187A4.4,4.4,0,0,1,9.153,73.96a6.7,6.7,0,0,1-2.915.587H0V57.826H6a6.783,6.783,0,0,1,2.9.563,4.117,4.117,0,0,1,1.8,1.524,3.985,3.985,0,0,1,.6,2.159,3.727,3.727,0,0,1-.805,2.46,4.5,4.5,0,0,1-2.123,1.4,3.548,3.548,0,0,1,1.668.744m-7.857-1.63h3.67a3.549,3.549,0,0,0,2.376-.72,2.785,2.785,0,0,0,0-3.983,3.623,3.623,0,0,0-2.424-.72H2.184ZM8.59,71.98A2.643,2.643,0,0,0,9.5,69.846a2.716,2.716,0,0,0-.959-2.2,3.878,3.878,0,0,0-2.567-.8H2.184v5.9H6.047A3.836,3.836,0,0,0,8.59,71.98" transform="translate(0 -57.633)" fill="#fff"/>
      <path id="Path_334" data-name="Path 334" d="M32.934,57.826V59.6H28.376V74.549H26.193V59.6H21.61V57.826Z" transform="translate(30.573 -57.633)" fill="#fff"/>
      <path id="Path_335" data-name="Path 335" d="M43.8,57.826V74.549H41.617V66.967H33.1v7.581H30.917V57.826H33.1v7.341h8.516V57.826Z" transform="translate(34.643 -57.633)" fill="#fff"/>
      <path id="Path_336" data-name="Path 336" d="M52.184,70.8H44.892l-1.344,3.718h-2.3L47.29,57.89h2.52l6.02,16.626h-2.3Zm-.623-1.776-3.023-8.446-3.023,8.446Z" transform="translate(39.66 -57.601)" fill="#fff"/>
      <path id="Path_337" data-name="Path 337" d="M63.325,57.826V59.6H58.766V74.549H56.583V59.6H52V57.826Z" transform="translate(45.675 -57.633)" fill="#fff"/>
      <g id="Group_19038" data-name="Group 19038" transform="translate(14.089)">
        <path id="Path_333" data-name="Path 333" d="M13.377,73.689a7.981,7.981,0,0,1-3.033-3.047,9.246,9.246,0,0,1,0-8.805,7.981,7.981,0,0,1,3.033-3.047A8.448,8.448,0,0,1,17.624,57.7a8.49,8.49,0,0,1,4.271,1.091,7.923,7.923,0,0,1,3.023,3.035,9.383,9.383,0,0,1,0,8.829,7.933,7.933,0,0,1-3.023,3.035,8.475,8.475,0,0,1-4.271,1.091,8.433,8.433,0,0,1-4.247-1.091m7.4-1.62a5.739,5.739,0,0,0,2.207-2.327,8.058,8.058,0,0,0,0-7.017,5.786,5.786,0,0,0-2.195-2.315,6.131,6.131,0,0,0-3.167-.816,6.13,6.13,0,0,0-3.166.816,5.766,5.766,0,0,0-2.195,2.315,8.044,8.044,0,0,0,0,7.017,5.729,5.729,0,0,0,2.207,2.327,6.163,6.163,0,0,0,3.154.816,6.164,6.164,0,0,0,3.155-.816" transform="translate(-9.228 -57.698)" fill="#fff"/>
        <path id="Path_338" data-name="Path 338" d="M21.455,65.044a4.979,4.979,0,1,1-4.979-4.979,4.979,4.979,0,0,1,4.979,4.979" transform="translate(-8.069 -56.502)" fill="#fff"/>
      </g>
      <g id="Group_19039" data-name="Group 19039" transform="translate(32.776)">
        <path id="Path_333-2" data-name="Path 333" d="M13.377,73.689a7.981,7.981,0,0,1-3.033-3.047,9.246,9.246,0,0,1,0-8.805,7.981,7.981,0,0,1,3.033-3.047A8.448,8.448,0,0,1,17.624,57.7a8.49,8.49,0,0,1,4.271,1.091,7.923,7.923,0,0,1,3.023,3.035,9.383,9.383,0,0,1,0,8.829,7.933,7.933,0,0,1-3.023,3.035,8.475,8.475,0,0,1-4.271,1.091,8.433,8.433,0,0,1-4.247-1.091m7.4-1.62a5.739,5.739,0,0,0,2.207-2.327,8.058,8.058,0,0,0,0-7.017,5.786,5.786,0,0,0-2.195-2.315,6.131,6.131,0,0,0-3.167-.816,6.13,6.13,0,0,0-3.166.816,5.766,5.766,0,0,0-2.195,2.315,8.044,8.044,0,0,0,0,7.017,5.729,5.729,0,0,0,2.207,2.327,6.163,6.163,0,0,0,3.154.816,6.164,6.164,0,0,0,3.155-.816" transform="translate(-9.228 -57.698)" fill="#fff"/>
        <path id="Path_338-2" data-name="Path 338" d="M21.455,65.044a4.979,4.979,0,1,1-4.979-4.979,4.979,4.979,0,0,1,4.979,4.979" transform="translate(-8.069 -56.502)" fill="#fff"/>
      </g>
    </g>
    <path id="Path_339" data-name="Path 339" d="M39.615,31.446A14.033,14.033,0,0,1,53.633,45.465,12.244,12.244,0,0,1,41.4,57.7H18.084V31.446Zm0-2.258H15.826V59.953H41.4A14.489,14.489,0,0,0,55.891,45.465,16.277,16.277,0,0,0,39.615,29.188" transform="translate(774.922 -646.523)" fill="#fff"/>
    <path id="Path_340" data-name="Path 340" d="M38.2,41.685A6.787,6.787,0,1,1,31.412,34.9,6.786,6.786,0,0,1,38.2,41.685" transform="translate(778.872 -643.636)" fill="#fff"/>
    <g id="Group_137" data-name="Group 137" transform="translate(790.748 -646)">
      <g id="Group_136" data-name="Group 136" clip-path="url(#clip-path)">
        <path id="Path_341" data-name="Path 341" d="M33.931,34.964a.932.932,0,0,1-.658-1.591L44.787,21.857A.932.932,0,0,1,46.1,23.176L34.589,34.691a.93.93,0,0,1-.658.272" transform="translate(-7.146 -4.478)" fill="#fff"/>
        <path id="Path_342" data-name="Path 342" d="M27.867,37.737a.932.932,0,0,1-.659-1.591L47.852,15.5a.932.932,0,0,1,1.317,1.319L28.527,37.464a.934.934,0,0,1-.659.272" transform="translate(-10.211 -7.691)" fill="#fff"/>
        <path id="Path_343" data-name="Path 343" d="M21.984,39.985a.932.932,0,0,1-.659-1.591l26.6-26.6a.932.932,0,1,1,1.317,1.319l-26.6,26.6a.936.936,0,0,1-.659.272" transform="translate(-13.185 -9.564)" fill="#fff"/>
        <path id="Path_344" data-name="Path 344" d="M16.351,40.775a.932.932,0,0,1-.659-1.591L45.468,9.407a.932.932,0,1,1,1.317,1.319L17.011,40.5a.934.934,0,0,1-.659.272" transform="translate(-16.032 -10.771)" fill="#fff"/>
        <path id="Path_345" data-name="Path 345" d="M13.238,37.663a.932.932,0,0,1-.659-1.591L42.355,6.3a.932.932,0,1,1,1.317,1.319L13.9,37.391a.934.934,0,0,1-.659.272" transform="translate(-17.605 -12.345)" fill="#fff"/>
        <path id="Path_346" data-name="Path 346" d="M10.233,34.658a.932.932,0,0,1-.659-1.591L39.35,3.29a.933.933,0,0,1,1.319,1.319L10.893,34.386a.936.936,0,0,1-.659.272" transform="translate(-19.124 -13.863)" fill="#fff"/>
        <path id="Path_347" data-name="Path 347" d="M7.216,31.64a.932.932,0,0,1-.659-1.591L36.333.272a.933.933,0,1,1,1.319,1.319L7.876,31.368a.934.934,0,0,1-.659.272" transform="translate(-20.649 -15.389)" fill="#fff"/>
      </g>
    </g>
  </g>
</svg>
